<svg width="78" height="26" viewBox="0 0 78 26" fill="none" xmlns="http://www.w3.org/2000/svg">
<path d="M12.8367 1C9.62632 1.10707 6.58655 2.47138 4.37268 4.79883C2.15881 7.12627 0.948159 10.2305 1.0017 13.4422C1.05525 16.654 2.3687 19.7161 4.65892 21.9684C6.94914 24.2208 10.0327 25.483 13.2449 25.483C16.4571 25.483 19.5407 24.2208 21.8309 21.9684C24.1211 19.7161 25.4346 16.654 25.4881 13.4422C25.5416 10.2305 24.331 7.12627 22.1171 4.79883C19.9033 2.47138 16.8635 1.10707 13.6531 1H12.8367ZM29.9796 1C26.7692 1.10707 23.7294 2.47138 21.5155 4.79883C19.3017 7.12627 18.091 10.2305 18.1446 13.4422C18.1981 16.654 19.5116 19.7161 21.8018 21.9684C24.092 24.2208 27.1756 25.483 30.3878 25.483C33.6 25.483 36.6835 24.2208 38.9737 21.9684C41.264 19.7161 42.5774 16.654 42.631 13.4422C42.6845 10.2305 41.4738 7.12627 39.26 4.79883C37.0461 2.47138 34.0063 1.10707 30.7959 1H29.9796ZM47.1225 1C43.912 1.10707 40.8723 2.47138 38.6584 4.79883C36.4445 7.12627 35.2339 10.2305 35.2874 13.4422C35.341 16.654 36.6544 19.7161 38.9446 21.9684C41.2348 24.2208 44.3184 25.483 47.5306 25.483C50.7428 25.483 53.8264 24.2208 56.1166 21.9684C58.4068 19.7161 59.7203 16.654 59.7738 13.4422C59.8274 10.2305 58.6167 7.12627 56.4028 4.79883C54.189 2.47138 51.1492 1.10707 47.9388 1H47.1225ZM64.2653 1C61.0549 1.10707 58.0151 2.47138 55.8012 4.79883C53.5874 7.12627 52.3767 10.2305 52.4303 13.4422C52.4838 16.654 53.7973 19.7161 56.0875 21.9684C58.3777 24.2208 61.4613 25.483 64.6735 25.483C67.8857 25.483 70.9692 24.2208 73.2595 21.9684C75.5497 19.7161 76.8631 16.654 76.9167 13.4422C76.9702 10.2305 75.7596 7.12627 73.5457 4.79883C71.3318 2.47138 68.292 1.10707 65.0816 1H64.2653Z" stroke="#4C4C57"/>
</svg>
