<svg width="80" height="19" viewBox="0 0 80 19" fill="none" xmlns="http://www.w3.org/2000/svg">
<path d="M46.4111 16.662C46.4111 16.8139 46.4591 16.902 46.5472 16.902C46.6216 16.902 46.6833 16.8621 46.7393 16.8219L71.6728 0.639683C72.094 0.345211 72.5987 0.193765 73.1125 0.207637H78.5919C79.4319 0.207637 79.9998 0.767478 79.9998 1.60748V12.0704C79.9998 13.3342 79.7198 14.0702 78.5999 14.742L71.9527 18.7417C71.8863 18.7878 71.8079 18.8218 71.7288 18.8218C71.6496 18.8218 71.5688 18.7578 71.5688 18.5258V6.31913C71.5688 6.17503 71.5289 6.07913 71.4328 6.07913C71.3626 6.07913 71.296 6.11503 71.2407 6.15921L53.0185 17.9981C52.6025 18.278 52.1144 18.4301 51.6186 18.4221H39.5397C38.6917 18.4221 38.1319 17.8623 38.1319 17.0142V1.93583C38.1319 1.82386 38.0839 1.71992 37.9878 1.71992C37.9178 1.71992 37.8515 1.75653 37.7957 1.8L25.7733 9.01487C25.6533 9.09495 25.6214 9.15093 25.6214 9.20692C25.6214 9.25487 25.6455 9.30283 25.7253 9.39094L34.3164 17.974C34.4284 18.086 34.5085 18.1741 34.5085 18.27C34.5085 18.3501 34.3804 18.4141 34.2285 18.4141H26.4692C25.8612 18.4141 25.3892 18.326 25.0613 17.9981L19.8538 12.7986C19.8139 12.7509 19.7565 12.7186 19.6939 12.7186C19.6375 12.7186 19.5824 12.7377 19.534 12.7665L10.8309 17.9981C10.303 18.3182 9.94298 18.406 9.42306 18.406H1.4159C0.560079 18.4141 0 17.8462 0 17.0062V6.74314C0 5.47133 0.279921 4.7433 1.40787 4.07149L8.09527 0.0559841C8.14725 0.020626 8.2084 0.00117251 8.27125 0C8.37519 0 8.43117 0.103936 8.43117 0.335904V14.0785C8.43117 14.2226 8.46306 14.2864 8.56724 14.2864C8.6381 14.2864 8.7033 14.2464 8.76732 14.2063L31.3571 0.615591C31.7891 0.319607 32.3171 0.175748 32.845 0.199606H45.0037C45.8437 0.199606 46.4116 0.759447 46.4116 1.59945L46.4036 16.662H46.4111Z" fill="#223547"/>
</svg>
