<svg width="57" height="57" viewBox="0 0 57 57" fill="none" xmlns="http://www.w3.org/2000/svg">
<path fill-rule="evenodd" clip-rule="evenodd" d="M41.727 3.231C50.8012 8.00325 57 17.5177 57 28.485C57 39.4523 50.8012 48.9967 41.727 53.7397V50.4788C45.1972 48.4028 48.1327 45.498 50.2687 42.06L41.727 38.5928V33.3165L51.0982 40.638C53.0557 37.0215 54.153 32.901 54.153 28.4842C54.153 19.1768 49.17 10.9965 41.727 6.4905V3.231ZM28.53 0C33.2752 0 37.7527 1.1565 41.727 3.231V6.492C38.079 4.2975 33.8085 2.994 29.301 2.8455L32.5628 26.1735L41.727 33.3172V38.5935L28.47 33.228L15.3022 38.6227V33.3757L24.5257 26.1727L27.7583 2.84475C23.1908 2.99325 18.9503 4.2975 15.3022 6.4905V3.231C19.2472 1.1565 23.7548 0 28.53 0ZM41.727 53.7397C37.7527 55.8143 33.2745 56.9993 28.53 56.9993C23.7555 56.9993 19.248 55.8143 15.303 53.769V50.4788C19.1587 52.8195 23.6955 54.1538 28.53 54.1538C33.3345 54.1538 37.8427 52.8195 41.727 50.4788V53.7397ZM15.303 53.769C6.198 48.9967 0 39.4523 0 28.485C0 17.5177 6.198 8.00325 15.303 3.231V6.492C7.82925 10.9972 2.847 19.1482 2.847 28.485C2.847 32.901 3.97425 37.0815 5.93175 40.6973L15.303 33.3757V38.6227L6.79125 42.1193C8.9265 45.5295 11.8327 48.4035 15.303 50.4788V53.769Z" fill="#4D4D4D"/>
</svg>
