<svg width="80" height="52" viewBox="0 0 80 52" fill="none" xmlns="http://www.w3.org/2000/svg">
<path d="M39.6302 0C17.7448 0 0 11.4792 0 25.6354C0 39.7969 17.7448 51.2812 39.6302 51.2812C61.5156 51.2812 79.2604 39.8021 79.2604 25.6354C79.2604 11.4687 61.5156 0 39.6302 0ZM39.6302 40.276C36.375 40.276 33.7188 33.8646 33.5521 25.7969C35.5104 25.9687 37.5469 26.0625 39.6302 26.0625C41.7135 26.0625 43.75 25.9687 45.7083 25.7969C45.5417 33.8594 42.8854 40.276 39.6302 40.276ZM33.9531 19.3906C34.8385 13.6875 37.0469 9.64062 39.6302 9.64062C42.2135 9.64062 44.4219 13.6875 45.3073 19.3906C43.4896 19.5521 41.5938 19.6406 39.6302 19.6406C37.6667 19.6406 35.7708 19.5521 33.9531 19.3906ZM39.6302 3.70833C35.3802 3.70833 31.7552 10.0729 30.4167 18.9583C22.3594 17.7031 16.7344 14.8385 16.7344 11.5104C16.7344 7.02083 26.9844 3.38021 39.6302 3.38021C52.276 3.38021 62.526 7.02083 62.526 11.5104C62.526 14.8385 56.901 17.7031 48.8438 18.9583C47.5052 10.0729 43.8802 3.70833 39.6302 3.70833ZM5.68229 24.6771C5.68229 20.3333 7.35417 16.2552 10.2656 12.7552C10.2344 13 10.2135 13.25 10.2135 13.5C10.2135 18.974 18.4219 23.6406 29.875 25.3594C29.8646 25.7552 29.8646 26.1562 29.8646 26.5573C29.8646 36.7604 32.724 45.401 36.6771 48.3333C19.3073 47.2865 5.68229 37.0937 5.68229 24.6771ZM42.5833 48.3333C46.5365 45.401 49.3958 36.7604 49.3958 26.5573C49.3958 26.151 49.3906 25.7552 49.3854 25.3594C60.8333 23.6406 69.0469 18.9792 69.0469 13.5C69.0469 13.25 69.026 13 68.9948 12.7552C71.9062 16.2656 73.5781 20.3333 73.5781 24.6771C73.5781 37.0937 59.9531 47.2865 42.5833 48.3333Z" fill="#282830"/>
</svg>
