<svg width="16" height="16" viewBox="0 0 16 16" fill="none" xmlns="http://www.w3.org/2000/svg">
<path fill-rule="evenodd" clip-rule="evenodd" d="M11.7126 0.882812H4.28638C2.23473 0.882812 0.565674 2.55187 0.565674 4.60351V11.3975C0.565674 13.4491 2.23473 15.1182 4.28638 15.1182H11.7126C13.7643 15.1182 15.4333 13.4491 15.4333 11.3975V4.60351C15.4333 2.55187 13.7643 0.882812 11.7126 0.882812ZM1.87822 4.60351C1.87822 3.27583 2.95869 2.19536 4.28638 2.19536H11.7126C13.0403 2.19536 14.1208 3.27583 14.1208 4.60351V11.3975C14.1208 12.7252 13.0403 13.8056 11.7126 13.8056H4.28638C2.95869 13.8056 1.87822 12.7252 1.87822 11.3975V4.60351ZM8.00019 11.4608C9.90805 11.4608 11.4611 9.90864 11.4611 7.99994C11.4611 6.09124 9.90889 4.53906 8.00019 4.53906C6.09149 4.53906 4.53931 6.09124 4.53931 7.99994C4.53931 9.90864 6.09149 11.4608 8.00019 11.4608ZM8.00019 5.85245C9.18493 5.85245 10.1485 6.81605 10.1485 8.00079C10.1485 9.18552 9.18493 10.1491 8.00019 10.1491C6.81545 10.1491 5.85185 9.18552 5.85185 8.00079C5.85185 6.81605 6.81545 5.85245 8.00019 5.85245ZM12.7143 4.16589C12.7143 4.68048 12.2957 5.09838 11.7821 5.09838C11.2676 5.09838 10.8499 4.68048 10.8499 4.16589C10.8499 3.6513 11.2676 3.2334 11.7821 3.2334C12.2965 3.2334 12.7143 3.6513 12.7143 4.16589Z" fill="white"/>
</svg>
