<svg width="12" height="10" viewBox="0 0 12 10" fill="none" xmlns="http://www.w3.org/2000/svg">
<path fill-rule="evenodd" clip-rule="evenodd" d="M1.52587 3.89446C4.44107 2.62435 6.38499 1.78702 7.35764 1.38246C10.1347 0.227368 10.7118 0.0267158 11.0879 0.0200902C11.1706 0.0186329 11.3556 0.0391343 11.4754 0.136354C11.5766 0.218444 11.6044 0.329336 11.6177 0.407166C11.6311 0.484996 11.6477 0.662296 11.6345 0.800833C11.484 2.38207 10.8328 6.21931 10.5015 7.99032C10.3613 8.73971 10.0853 8.99097 9.81811 9.01556C9.23739 9.069 8.79642 8.63178 8.23396 8.26308C7.35383 7.68615 6.85662 7.327 6.0023 6.76402C5.01499 6.11339 5.65502 5.7558 6.21769 5.17139C6.36494 5.01845 8.9236 2.69115 8.97312 2.48003C8.97931 2.45362 8.98506 2.3552 8.92659 2.30323C8.86812 2.25126 8.78182 2.26903 8.71955 2.28316C8.63127 2.3032 7.22525 3.23253 4.50149 5.07114C4.10239 5.34519 3.74091 5.47872 3.41703 5.47172C3.05998 5.46401 2.37315 5.26984 1.86257 5.10387C1.23632 4.9003 0.738587 4.79267 0.781928 4.44695C0.804503 4.26687 1.05248 4.08271 1.52587 3.89446Z" fill="white"/>
</svg>
