<svg width="46" height="60" viewBox="0 0 46 60" fill="none" xmlns="http://www.w3.org/2000/svg">
<path fill-rule="evenodd" clip-rule="evenodd" d="M13.2 0.249581C13.5908 0.225912 13.9825 0.279627 14.3525 0.407646C14.7226 0.535664 15.0637 0.735467 15.3563 0.995598C15.649 1.25573 15.8874 1.57107 16.0579 1.92354C16.2284 2.27601 16.3277 2.65867 16.35 3.04958L17.225 16.3496C17.2714 17.1386 17.0025 17.9137 16.4774 18.5045C15.9523 19.0952 15.214 19.4532 14.425 19.4996C13.636 19.546 12.8608 19.2771 12.2701 18.752C11.6794 18.2269 11.3214 17.4886 11.275 16.6996L10.4 3.39958C10.3763 3.00875 10.43 2.61709 10.5581 2.24706C10.6861 1.87703 10.8859 1.53591 11.146 1.24326C11.4061 0.950616 11.7215 0.712197 12.074 0.541679C12.4264 0.371161 12.8091 0.271897 13.2 0.249581ZM33.815 0.879581C34.193 0.988093 34.5458 1.17048 34.8528 1.41619C35.1599 1.6619 35.4152 1.96605 35.604 2.31107C35.7928 2.65608 35.9113 3.03509 35.9527 3.42619C35.994 3.81729 35.9574 4.21271 35.845 4.58958L31.12 20.8646C30.8972 21.6258 30.3812 22.2672 29.6854 22.6479C28.9897 23.0286 28.1712 23.1174 27.41 22.8946C26.6488 22.6718 26.0073 22.1558 25.6266 21.46C25.2459 20.7642 25.1572 19.9458 25.38 19.1846L30.105 2.90958C30.2135 2.53157 30.3959 2.17882 30.6416 1.87174C30.8873 1.56466 31.1915 1.30935 31.5365 1.12057C31.8815 0.93179 32.2605 0.81329 32.6516 0.771925C33.0427 0.730561 33.4381 0.767151 33.815 0.879581ZM35.88 25.6596C36.333 25.1395 36.9724 24.8185 37.6601 24.7662C38.3478 24.7138 39.0285 24.9341 39.555 25.3796C41.5863 27.1403 43.1972 29.3338 44.2692 31.799C45.3413 34.2641 45.8473 36.9382 45.75 39.6246C45.75 49.0046 37.7 59.7496 23 59.7496C12.08 59.7496 0.25 51.9796 0.25 39.6246C0.25 37.2446 0.985 34.0596 2.945 31.3996C4.975 28.5996 8.3 26.4996 12.99 26.4996C14.355 26.4996 19.64 26.9546 22.755 33.1846C23.0706 33.8112 23.1244 34.5374 22.9045 35.2037C22.6846 35.8699 22.2091 36.4215 21.5825 36.7371C20.9559 37.0527 20.2296 37.1065 19.5634 36.8866C18.8972 36.6667 18.3456 36.1912 18.03 35.5646C16.175 31.7846 13.305 31.7496 12.99 31.7496C10.085 31.7496 8.3 32.9746 7.18 34.5146C6.12177 36.0117 5.53659 37.7916 5.5 39.6246C5.5 48.1296 13.9 54.4996 23 54.4996C34.76 54.4996 40.5 46.0996 40.5 39.6246C40.5 36.2996 39.73 32.4146 36.16 29.3696C35.8973 29.1448 35.6817 28.8704 35.5254 28.562C35.3691 28.2537 35.2752 27.9175 35.2492 27.5728C35.2232 27.228 35.2655 26.8816 35.3738 26.5533C35.482 26.2249 35.6541 25.9212 35.88 25.6596Z" fill="#D257FF"/>
</svg>
