<svg width="24" height="24" viewBox="0 0 24 24" xmlns="http://www.w3.org/2000/svg">
<path d="M0 11.52C0 6.08942 0 3.37414 1.67036 1.68707C3.34073 0 6.02913 0 11.4059 0H12.3564C17.7332 0 20.4216 0 22.092 1.68707C23.7624 3.37414 23.7624 6.08942 23.7624 11.52V12.48C23.7624 17.9106 23.7624 20.6259 22.092 22.3129C20.4216 24 17.7332 24 12.3564 24H11.4059C6.02913 24 3.34073 24 1.67036 22.3129C0 20.6259 0 17.9106 0 12.48V11.52Z" fill="white"/>
<path d="M12.6337 16.99C7.21781 16.99 4.12872 13.24 4 7H6.71288C6.80199 11.58 8.80195 13.52 10.3861 13.92V7H12.9406V10.95C14.505 10.78 16.1483 8.98 16.7028 7H19.2573C18.8316 9.44001 17.0494 11.24 15.7821 11.98C17.0494 12.58 19.0792 14.15 19.8515 16.99H17.0395C16.4356 15.09 14.9307 13.62 12.9406 13.42V16.99H12.6337Z" fill="#B02F3F"/>
</svg>
