<svg width="12" height="12" viewBox="0 0 12 12" fill="none" xmlns="http://www.w3.org/2000/svg">
<path d="M10.3283 10.312C10.0444 10.5927 9.75379 10.7718 9.36453 10.9061C9.00048 11.0316 8.34985 11.065 7.96334 10.9779C7.06251 10.7749 5.68314 10.0596 4.50288 9.18337C3.38759 8.35535 2.42741 7.152 1.62803 5.58042C1.00771 4.3609 0.843117 3.58307 1.04133 2.80789C1.25926 1.9556 1.93133 1.25198 2.7602 1.00831C2.91073 0.964059 3.13408 0.945877 3.52717 0.945877C4.03258 0.945877 4.0911 0.953213 4.18688 1.02857C4.25337 1.08088 4.46704 1.45814 4.76837 2.05521L5.24475 2.99915L5.24341 3.33159C5.24221 3.62881 5.22748 3.69511 5.10433 3.95742C5.02858 4.11879 4.85021 4.39502 4.70796 4.57125L4.44932 4.89168L4.6328 5.25761C5.10985 6.209 5.81353 6.90419 6.7874 7.38622L7.11708 7.54939L7.34118 7.34711C7.81418 6.92014 8.28509 6.71492 8.72581 6.7437C8.98245 6.76045 9.05804 6.79091 9.93795 7.23223C10.4541 7.4911 10.9116 7.74192 10.9546 7.78961C11.0236 7.86614 11.0343 7.94177 11.0454 8.43399C11.057 8.95159 11.0505 9.01379 10.9545 9.29983C10.8192 9.70286 10.6219 10.0218 10.3283 10.312Z" fill="white"/>
</svg>
