<svg width="20" height="20" viewBox="0 0 20 20" fill="none" xmlns="http://www.w3.org/2000/svg">
<path d="M0.198425 19.9486C0.086196 19.8863 0.00189744 19.7447 1.22512e-06 19.6151C-0.000761248 19.5631 0.354478 18.5975 0.78942 17.4693L1.58022 15.4181L1.45239 15.1978C1.21725 14.7925 0.74855 13.8084 0.602389 13.4131C0.416247 12.9096 0.182609 11.9771 0.0928439 11.3794C0.00570287 10.7991 -0.00785122 9.29632 0.0692099 8.75899C0.401286 6.44351 1.35944 4.48798 2.93311 2.91395C4.50516 1.34155 6.48549 0.368128 8.75729 0.0511006C9.24553 -0.0170335 10.7715 -0.0170335 11.2598 0.0511006C14.1853 0.459351 16.6729 1.98986 18.2938 4.37867C19.1526 5.6444 19.6759 7.00373 19.9275 8.62211C20.0151 9.18617 20.0258 10.7247 19.9459 11.262C19.6058 13.5467 18.6179 15.5459 17.0673 17.0875C14.6493 19.4914 11.2087 20.4905 7.83841 19.7674C6.9845 19.5842 5.70336 19.0757 4.90582 18.6034L4.71031 18.4876L2.59885 19.2436C1.43754 19.6594 0.443392 19.9998 0.389627 20C0.335863 20.0002 0.249822 19.977 0.198425 19.9486Z" fill="white" fill-opacity="0.5"/>
</svg>
