<svg width="24" height="24" viewBox="0 0 24 24" fill="none" xmlns="http://www.w3.org/2000/svg">
<path d="M12.0292 -0.00195312H11.9745C5.36218 -0.00195312 0.00183105 5.3584 0.00183105 11.9707V12.0254C0.00183105 18.6377 5.36218 23.998 11.9745 23.998H12.0292C18.6415 23.998 24.0018 18.6377 24.0018 12.0254V11.9707C24.0018 5.3584 18.6415 -0.00195312 12.0292 -0.00195312Z" fill="url(#paint0_radial_0_730)"/>
<path fill-rule="evenodd" clip-rule="evenodd" d="M15.7123 4.88086H8.28601C6.23437 4.88086 4.56531 6.54992 4.56531 8.60156V15.3955C4.56531 17.4472 6.23437 19.1162 8.28601 19.1162H15.7123C17.7639 19.1162 19.433 17.4472 19.433 15.3955V8.60156C19.433 6.54992 17.7639 4.88086 15.7123 4.88086ZM5.87785 8.60156C5.87785 7.27388 6.95833 6.1934 8.28601 6.1934H15.7123C17.04 6.1934 18.1204 7.27388 18.1204 8.60156V15.3955C18.1204 16.7232 17.04 17.8037 15.7123 17.8037H8.28601C6.95833 17.8037 5.87785 16.7232 5.87785 15.3955V8.60156ZM11.9998 15.4589C13.9077 15.4589 15.4607 13.9067 15.4607 11.998C15.4607 10.0893 13.9085 8.53711 11.9998 8.53711C10.0911 8.53711 8.53894 10.0893 8.53894 11.998C8.53894 13.9067 10.0911 15.4589 11.9998 15.4589ZM11.9998 9.8505C13.1846 9.8505 14.1482 10.8141 14.1482 11.9988C14.1482 13.1836 13.1846 14.1472 11.9998 14.1472C10.8151 14.1472 9.85149 13.1836 9.85149 11.9988C9.85149 10.8141 10.8151 9.8505 11.9998 9.8505ZM16.7139 8.16296C16.7139 8.67755 16.2953 9.09545 15.7817 9.09545C15.2673 9.09545 14.8495 8.67755 14.8495 8.16296C14.8495 7.64837 15.2673 7.23047 15.7817 7.23047C16.2961 7.23047 16.7139 7.64837 16.7139 8.16296Z" fill="white"/>
<defs>
<radialGradient id="paint0_radial_0_730" cx="0" cy="0" r="1" gradientUnits="userSpaceOnUse" gradientTransform="translate(6.37686 25.8466) rotate(-90) scale(23.7858 22.1226)">
<stop stop-color="#FFDD55"/>
<stop offset="0.1" stop-color="#FFDD55"/>
<stop offset="0.5" stop-color="#FF543E"/>
<stop offset="1" stop-color="#C837AB"/>
</radialGradient>
</defs>
</svg>
