<svg width="24" height="24" viewBox="0 0 24 24" fill="none" xmlns="http://www.w3.org/2000/svg">
<g clip-path="url(#clip0_0_703)">
<path d="M12 23.998C18.6274 23.998 24 18.6255 24 11.998C24 5.37063 18.6274 -0.00195312 12 -0.00195312C5.37258 -0.00195312 0 5.37063 0 11.998C0 18.6255 5.37258 23.998 12 23.998Z" fill="#29AAEB"/>
<path fill-rule="evenodd" clip-rule="evenodd" d="M5.4322 11.872C8.93044 10.3479 11.2632 9.34306 12.4303 8.85759C15.7629 7.47147 16.4553 7.23069 16.9067 7.22274C17.0059 7.22099 17.2279 7.24559 17.3717 7.36226C17.4931 7.46077 17.5265 7.59384 17.5425 7.68723C17.5584 7.78063 17.5783 7.99339 17.5625 8.15963C17.3819 10.0571 16.6005 14.6618 16.203 16.787C16.0348 17.6863 15.7035 17.9878 15.3829 18.0173C14.686 18.0814 14.1569 17.5568 13.4819 17.1143C12.4258 16.422 11.8291 15.991 10.8039 15.3155C9.61914 14.5347 10.3872 14.1056 11.0624 13.4043C11.2391 13.2208 14.3095 10.428 14.3689 10.1747C14.3763 10.143 14.3832 10.0249 14.3131 9.96251C14.2429 9.90014 14.1393 9.92147 14.0646 9.93843C13.9587 9.96247 12.2715 11.0777 9.00294 13.284C8.52403 13.6129 8.09025 13.7731 7.70159 13.7647C7.27313 13.7554 6.44894 13.5224 5.83624 13.3233C5.08474 13.079 4.48746 12.9498 4.53947 12.535C4.56656 12.3189 4.86414 12.0979 5.4322 11.872Z" fill="white"/>
</g>
<defs>
<clipPath id="clip0_0_703">
<rect width="24" height="24" fill="white" transform="translate(0 -0.00195312)"/>
</clipPath>
</defs>
</svg>
