<svg width="24" height="24" viewBox="0 0 24 24" fill="none" xmlns="http://www.w3.org/2000/svg">
<path d="M0.119141 11.518C0.119141 6.08747 0.119141 3.37218 1.7895 1.68511C3.45987 -0.00195312 6.14827 -0.00195312 11.5251 -0.00195312H12.4756C17.8524 -0.00195312 20.5408 -0.00195312 22.2112 1.68511C23.8815 3.37218 23.8815 6.08747 23.8815 11.518V12.478C23.8815 17.9086 23.8815 20.6239 22.2112 22.311C20.5408 23.998 17.8524 23.998 12.4756 23.998H11.5251C6.14827 23.998 3.45987 23.998 1.7895 22.311C0.119141 20.6239 0.119141 17.9086 0.119141 12.478V11.518Z" fill="#0077FF"/>
<path d="M12.7626 17.2888C7.34671 17.2888 4.25763 13.5388 4.12891 7.29883H6.84179C6.93089 11.8788 8.93085 13.8188 10.515 14.2188V7.29883H13.0695V11.2488C14.6339 11.0788 16.2773 9.27883 16.8317 7.29883H19.3863C18.9605 9.73884 17.1783 11.5388 15.911 12.2788C17.1783 12.8788 19.2081 14.4488 19.9804 17.2888H17.1684C16.5645 15.3888 15.0596 13.9188 13.0695 13.7188V17.2888H12.7626Z" fill="white"/>
</svg>
